<svg width="185" height="37" viewBox="0 0 185 37" fill="none" xmlns="http://www.w3.org/2000/svg">
<path d="M18.5 26.6246L24.8979 30.4942C26.0696 31.2034 27.5033 30.155 27.195 28.8292L25.4992 21.5525L31.1571 16.65C32.19 15.7559 31.635 14.06 30.2783 13.9521L22.8321 13.32L19.9183 6.44419C19.3942 5.19544 17.6058 5.19544 17.0817 6.44419L14.1679 13.3046L6.72166 13.9367C5.36499 14.0446 4.80999 15.7404 5.84291 16.6346L11.5008 21.5371L9.80499 28.8138C9.49666 30.1396 10.9304 31.1879 12.1021 30.4788L18.5 26.6246Z" fill="white"/>
<path d="M55.5 26.6246L61.8979 30.4942C63.0696 31.2034 64.5033 30.155 64.195 28.8292L62.4992 21.5525L68.1571 16.65C69.19 15.7559 68.635 14.06 67.2783 13.9521L59.8321 13.32L56.9183 6.44419C56.3942 5.19544 54.6058 5.19544 54.0817 6.44419L51.1679 13.3046L43.7217 13.9367C42.365 14.0446 41.81 15.7404 42.8429 16.6346L48.5008 21.5371L46.805 28.8138C46.4967 30.1396 47.9304 31.1879 49.1021 30.4788L55.5 26.6246Z" fill="white"/>
<path d="M92.5 26.6246L98.8979 30.4942C100.07 31.2034 101.503 30.155 101.195 28.8292L99.4992 21.5525L105.157 16.65C106.19 15.7559 105.635 14.06 104.278 13.9521L96.8321 13.32L93.9183 6.44419C93.3942 5.19544 91.6058 5.19544 91.0817 6.44419L88.1679 13.3046L80.7217 13.9367C79.365 14.0446 78.81 15.7404 79.8429 16.6346L85.5008 21.5371L83.805 28.8138C83.4967 30.1396 84.9304 31.1879 86.1021 30.4788L92.5 26.6246Z" fill="white"/>
<path d="M129.003 6.83087C129.184 6.39964 129.815 6.39968 129.996 6.83087L129.997 6.83478L132.912 13.7098L133.147 14.2654L133.747 14.3162L141.194 14.9481L141.199 14.949C141.636 14.9838 141.843 15.5055 141.565 15.8318L141.502 15.8943L135.844 20.7967L135.388 21.1922L135.525 21.7791L137.221 29.0565C137.323 29.4952 136.887 29.8417 136.494 29.6785L136.415 29.6385L130.018 25.7693L129.501 25.4568L128.984 25.7684L122.586 29.6219L122.584 29.6229C122.174 29.8715 121.67 29.5089 121.779 29.0408L123.475 21.7645L123.612 21.1766L123.156 20.7811L117.497 15.8787L117.435 15.8162C117.157 15.4898 117.364 14.9682 117.801 14.9334H117.806L125.252 14.3006L125.853 14.2498L126.088 13.6951L129.002 6.83478L129.003 6.83087Z" stroke="white" stroke-width="2"/>
<path d="M166.003 6.83087C166.184 6.39964 166.815 6.39968 166.996 6.83087L166.997 6.83478L169.912 13.7098L170.147 14.2654L170.747 14.3162L178.194 14.9481L178.199 14.949C178.636 14.9838 178.843 15.5055 178.565 15.8318L178.502 15.8943L172.844 20.7967L172.388 21.1922L172.525 21.7791L174.221 29.0565C174.323 29.4952 173.887 29.8417 173.494 29.6785L173.415 29.6385L167.018 25.7693L166.501 25.4568L165.984 25.7684L159.586 29.6219L159.584 29.6229C159.174 29.8715 158.67 29.5089 158.779 29.0408L160.475 21.7645L160.612 21.1766L160.156 20.7811L154.497 15.8787L154.435 15.8162C154.157 15.4898 154.364 14.9682 154.801 14.9334H154.806L162.252 14.3006L162.853 14.2498L163.088 13.6951L166.002 6.83478L166.003 6.83087Z" stroke="white" stroke-width="2"/>
</svg>
