<svg width="185" height="37" viewBox="0 0 185 37" fill="none" xmlns="http://www.w3.org/2000/svg">
<path d="M18.5 26.6245L24.8979 30.4941C26.0696 31.2033 27.5033 30.155 27.195 28.8291L25.4992 21.5525L31.1571 16.65C32.19 15.7558 31.635 14.06 30.2783 13.952L22.8321 13.32L19.9183 6.44413C19.3942 5.19538 17.6058 5.19538 17.0817 6.44413L14.1679 13.3045L6.72166 13.9366C5.36499 14.0445 4.80999 15.7404 5.84291 16.6345L11.5008 21.537L9.80499 28.8137C9.49666 30.1395 10.9304 31.1879 12.1021 30.4787L18.5 26.6245Z" fill="white"/>
<path d="M55.5 26.6245L61.8979 30.4941C63.0696 31.2033 64.5033 30.155 64.195 28.8291L62.4992 21.5525L68.1571 16.65C69.19 15.7558 68.635 14.06 67.2783 13.952L59.8321 13.32L56.9183 6.44413C56.3942 5.19538 54.6058 5.19538 54.0817 6.44413L51.1679 13.3045L43.7217 13.9366C42.365 14.0445 41.81 15.7404 42.8429 16.6345L48.5008 21.537L46.805 28.8137C46.4967 30.1395 47.9304 31.1879 49.1021 30.4787L55.5 26.6245Z" fill="white"/>
<path d="M92.5 26.6245L98.8979 30.4941C100.07 31.2033 101.503 30.155 101.195 28.8291L99.4992 21.5525L105.157 16.65C106.19 15.7558 105.635 14.06 104.278 13.952L96.8321 13.32L93.9183 6.44413C93.3942 5.19538 91.6058 5.19538 91.0817 6.44413L88.1679 13.3045L80.7217 13.9366C79.365 14.0445 78.81 15.7404 79.8429 16.6345L85.5008 21.537L83.805 28.8137C83.4967 30.1395 84.9304 31.1879 86.1021 30.4787L92.5 26.6245Z" fill="white"/>
<path d="M129.5 26.6245L135.898 30.4941C137.07 31.2033 138.503 30.155 138.195 28.8291L136.499 21.5525L142.157 16.65C143.19 15.7558 142.635 14.06 141.278 13.952L133.832 13.32L130.918 6.44413C130.394 5.19538 128.606 5.19538 128.082 6.44413L125.168 13.3045L117.722 13.9366C116.365 14.0445 115.81 15.7404 116.843 16.6345L122.501 21.537L120.805 28.8137C120.497 30.1395 121.93 31.1879 123.102 30.4787L129.5 26.6245Z" fill="white"/>
<path d="M166.5 26.6245L172.898 30.4941C174.07 31.2033 175.503 30.155 175.195 28.8291L173.499 21.5525L179.157 16.65C180.19 15.7558 179.635 14.06 178.278 13.952L170.832 13.32L167.918 6.44413C167.394 5.19538 165.606 5.19538 165.082 6.44413L162.168 13.3045L154.722 13.9366C153.365 14.0445 152.81 15.7404 153.843 16.6345L159.501 21.537L157.805 28.8137C157.497 30.1395 158.93 31.1879 160.102 30.4787L166.5 26.6245Z" fill="white"/>
</svg>
