<svg width="185" height="37" viewBox="0 0 185 37" fill="none" xmlns="http://www.w3.org/2000/svg">
<path d="M18.0033 6.83087C18.1845 6.39964 18.8153 6.39968 18.9965 6.83087L18.9975 6.83478L21.9115 13.7098L22.1469 14.2654L22.7475 14.3162L30.1938 14.9481L30.1986 14.949C30.636 14.9838 30.8428 15.5055 30.5648 15.8318L30.5023 15.8943L24.8441 20.7967L24.3881 21.1922L24.5248 21.7791L26.2211 29.0565C26.3225 29.4952 25.8868 29.8417 25.4936 29.6785L25.4154 29.6385L19.018 25.7693L18.5014 25.4568L17.9838 25.7684L11.5863 29.6219L11.5844 29.6229C11.1736 29.8715 10.6704 29.5089 10.7787 29.0408L12.475 21.7645L12.6117 21.1766L12.1557 20.7811L6.49747 15.8787L6.43497 15.8162C6.15725 15.4898 6.36388 14.9682 6.80118 14.9334H6.80606L14.2523 14.3006L14.8529 14.2498L15.0883 13.6951L18.0023 6.83478L18.0033 6.83087Z" stroke="white" stroke-width="2"/>
<path d="M55.0033 6.83087C55.1845 6.39964 55.8153 6.39968 55.9965 6.83087L55.9975 6.83478L58.9115 13.7098L59.1469 14.2654L59.7475 14.3162L67.1938 14.9481L67.1986 14.949C67.636 14.9838 67.8428 15.5055 67.5648 15.8318L67.5023 15.8943L61.8441 20.7967L61.3881 21.1922L61.5248 21.7791L63.2211 29.0565C63.3225 29.4952 62.8868 29.8417 62.4936 29.6785L62.4154 29.6385L56.018 25.7693L55.5014 25.4568L54.9838 25.7684L48.5863 29.6219L48.5844 29.6229C48.1736 29.8715 47.6704 29.5089 47.7787 29.0408L49.475 21.7645L49.6117 21.1766L49.1557 20.7811L43.4975 15.8787L43.435 15.8162C43.1572 15.4898 43.3639 14.9682 43.8012 14.9334H43.8061L51.2523 14.3006L51.8529 14.2498L52.0883 13.6951L55.0023 6.83478L55.0033 6.83087Z" stroke="white" stroke-width="2"/>
<path d="M92.0033 6.83087C92.1845 6.39964 92.8153 6.39968 92.9965 6.83087L92.9975 6.83478L95.9115 13.7098L96.1469 14.2654L96.7475 14.3162L104.194 14.9481L104.199 14.949C104.636 14.9838 104.843 15.5055 104.565 15.8318L104.502 15.8943L98.8441 20.7967L98.3881 21.1922L98.5248 21.7791L100.221 29.0565C100.323 29.4952 99.8868 29.8417 99.4936 29.6785L99.4154 29.6385L93.018 25.7693L92.5014 25.4568L91.9838 25.7684L85.5863 29.6219L85.5844 29.6229C85.1736 29.8715 84.6704 29.5089 84.7787 29.0408L86.475 21.7645L86.6117 21.1766L86.1557 20.7811L80.4975 15.8787L80.435 15.8162C80.1572 15.4898 80.3639 14.9682 80.8012 14.9334H80.8061L88.2523 14.3006L88.8529 14.2498L89.0883 13.6951L92.0023 6.83478L92.0033 6.83087Z" stroke="white" stroke-width="2"/>
<path d="M129.003 6.83087C129.184 6.39964 129.815 6.39968 129.996 6.83087L129.997 6.83478L132.912 13.7098L133.147 14.2654L133.747 14.3162L141.194 14.9481L141.199 14.949C141.636 14.9838 141.843 15.5055 141.565 15.8318L141.502 15.8943L135.844 20.7967L135.388 21.1922L135.525 21.7791L137.221 29.0565C137.323 29.4952 136.887 29.8417 136.494 29.6785L136.415 29.6385L130.018 25.7693L129.501 25.4568L128.984 25.7684L122.586 29.6219L122.584 29.6229C122.174 29.8715 121.67 29.5089 121.779 29.0408L123.475 21.7645L123.612 21.1766L123.156 20.7811L117.497 15.8787L117.435 15.8162C117.157 15.4898 117.364 14.9682 117.801 14.9334H117.806L125.252 14.3006L125.853 14.2498L126.088 13.6951L129.002 6.83478L129.003 6.83087Z" stroke="white" stroke-width="2"/>
<path d="M166.003 6.83087C166.184 6.39964 166.815 6.39968 166.996 6.83087L166.997 6.83478L169.912 13.7098L170.147 14.2654L170.747 14.3162L178.194 14.9481L178.199 14.949C178.636 14.9838 178.843 15.5055 178.565 15.8318L178.502 15.8943L172.844 20.7967L172.388 21.1922L172.525 21.7791L174.221 29.0565C174.323 29.4952 173.887 29.8417 173.494 29.6785L173.415 29.6385L167.018 25.7693L166.501 25.4568L165.984 25.7684L159.586 29.6219L159.584 29.6229C159.174 29.8715 158.67 29.5089 158.779 29.0408L160.475 21.7645L160.612 21.1766L160.156 20.7811L154.497 15.8787L154.435 15.8162C154.157 15.4898 154.364 14.9682 154.801 14.9334H154.806L162.252 14.3006L162.853 14.2498L163.088 13.6951L166.002 6.83478L166.003 6.83087Z" stroke="white" stroke-width="2"/>
</svg>
