<svg width="46" height="47" viewBox="0 0 46 47" fill="none" xmlns="http://www.w3.org/2000/svg">
<path d="M13.2365 9.19593C13.0619 9.09241 12.863 9.03694 12.66 9.03517C12.4571 9.0334 12.2572 9.08538 12.0809 9.18583C11.9045 9.28629 11.7578 9.43164 11.6558 9.60711C11.5538 9.78259 11.5 9.98195 11.5 10.1849V36.8151C11.5 37.0181 11.5538 37.2174 11.6558 37.3929C11.7578 37.5684 11.9045 37.7137 12.0809 37.8142C12.2572 37.9146 12.4571 37.9666 12.66 37.9648C12.863 37.9631 13.0619 37.9076 13.2365 37.8041L35.7056 24.489C35.8772 24.3872 36.0193 24.2425 36.1181 24.0691C36.2168 23.8957 36.2687 23.6996 36.2687 23.5C36.2687 23.3005 36.2168 23.1044 36.1181 22.931C36.0193 22.7576 35.8772 22.6128 35.7056 22.511L13.2365 9.19593Z" fill="white" stroke="white" stroke-width="1.5" stroke-linecap="round" stroke-linejoin="round"/>
</svg>
