<svg width="37" height="37" viewBox="0 0 37 37" fill="none" xmlns="http://www.w3.org/2000/svg">
<path d="M18.0034 6.83084C18.1845 6.39961 18.8153 6.39965 18.9965 6.83084L18.9975 6.83475L21.9116 13.7097L22.1469 14.2654L22.7475 14.3162L30.1938 14.948L30.1987 14.949C30.6361 14.9838 30.8429 15.5055 30.5649 15.8318L30.5024 15.8943L24.8442 20.7967L24.3881 21.1922L24.5248 21.7791L26.2211 29.0564C26.3226 29.4951 25.8868 29.8417 25.4936 29.6785L25.4155 29.6385L19.018 25.7693L18.5014 25.4568L17.9838 25.7683L11.5864 29.6219L11.5844 29.6228C11.1737 29.8714 10.6704 29.5088 10.7787 29.0408L12.475 21.7644L12.6118 21.1765L12.1557 20.781L6.4975 15.8787L6.435 15.8162C6.15728 15.4898 6.36391 14.9682 6.80121 14.9334H6.80609L14.2524 14.3006L14.853 14.2498L15.0883 13.6951L18.0024 6.83475L18.0034 6.83084Z" stroke="white" stroke-width="2"/>
</svg>
