<svg width="64" height="65" viewBox="0 0 64 65" fill="none" xmlns="http://www.w3.org/2000/svg">
<path fill-rule="evenodd" clip-rule="evenodd" d="M42 16.5C42 17.0304 41.7893 17.5391 41.4142 17.9142C41.0391 18.2893 40.5304 18.5 40 18.5H8C7.46957 18.5 6.96086 18.2893 6.58579 17.9142C6.21071 17.5391 6 17.0304 6 16.5C6 15.9696 6.21071 15.4609 6.58579 15.0858C6.96086 14.7107 7.46957 14.5 8 14.5H40C40.5304 14.5 41.0391 14.7107 41.4142 15.0858C41.7893 15.4609 42 15.9696 42 16.5ZM36.6667 27.1667C36.6667 27.6971 36.456 28.2058 36.0809 28.5809C35.7058 28.956 35.1971 29.1667 34.6667 29.1667H8C7.46957 29.1667 6.96086 28.956 6.58579 28.5809C6.21071 28.2058 6 27.6971 6 27.1667C6 26.6362 6.21071 26.1275 6.58579 25.7525C6.96086 25.3774 7.46957 25.1667 8 25.1667H34.6667C35.1971 25.1667 35.7058 25.3774 36.0809 25.7525C36.456 26.1275 36.6667 26.6362 36.6667 27.1667ZM26 37.8333C26 38.3638 25.7893 38.8725 25.4142 39.2475C25.0391 39.6226 24.5304 39.8333 24 39.8333H8C7.46957 39.8333 6.96086 39.6226 6.58579 39.2475C6.21071 38.8725 6 38.3638 6 37.8333C6 37.3029 6.21071 36.7942 6.58579 36.4191C6.96086 36.044 7.46957 35.8333 8 35.8333H24C24.5304 35.8333 25.0391 36.044 25.4142 36.4191C25.7893 36.7942 26 37.3029 26 37.8333ZM23.3333 48.5C23.3333 49.0304 23.1226 49.5391 22.7475 49.9142C22.3725 50.2893 21.8638 50.5 21.3333 50.5H8C7.46957 50.5 6.96086 50.2893 6.58579 49.9142C6.21071 49.5391 6 49.0304 6 48.5C6 47.9696 6.21071 47.4609 6.58579 47.0858C6.96086 46.7107 7.46957 46.5 8 46.5H21.3333C21.8638 46.5 22.3725 46.7107 22.7475 47.0858C23.1226 47.4609 23.3333 47.9696 23.3333 48.5Z" fill="white"/>
<path d="M45.3333 19.8333C45.8638 19.8333 46.3725 20.0441 46.7476 20.4191C47.1226 20.7942 47.3333 21.3029 47.3333 21.8333C47.3333 24.1319 48.2464 26.3363 49.8718 27.9616C51.4971 29.5869 53.7015 30.5 56 30.5C56.5304 30.5 57.0392 30.7107 57.4142 31.0858C57.7893 31.4609 58 31.9696 58 32.5C58 33.0304 57.7893 33.5391 57.4142 33.9142C57.0392 34.2893 56.5304 34.5 56 34.5C52.648 34.5 49.6 33.1987 47.3333 31.0707V44.5C47.3325 46.4244 46.6913 48.2937 45.5106 49.8134C44.33 51.333 42.6772 52.4165 40.8127 52.8931C38.9483 53.3696 36.9783 53.212 35.2133 52.4452C33.4483 51.6784 31.9887 50.346 31.0646 48.658C30.1405 46.97 29.8045 45.0225 30.1096 43.1225C30.4146 41.2224 31.3434 39.478 32.7494 38.1641C34.1555 36.8502 35.9588 36.0416 37.8751 35.8659C39.7914 35.6901 41.7118 36.1571 43.3333 37.1933V21.8333C43.3333 21.3029 43.5441 20.7942 43.9191 20.4191C44.2942 20.0441 44.8029 19.8333 45.3333 19.8333Z" fill="white"/>
</svg>
