<svg width="43" height="42" viewBox="0 0 43 42" fill="none" xmlns="http://www.w3.org/2000/svg">
<path fill-rule="evenodd" clip-rule="evenodd" d="M14.9167 12.9792C14.9167 11.2774 15.5927 9.64526 16.7961 8.4419C17.9995 7.23854 19.6316 6.5625 21.3334 6.5625C23.0352 6.5625 24.6673 7.23854 25.8706 8.4419C27.074 9.64526 27.75 11.2774 27.75 12.9792C27.75 14.681 27.074 16.3131 25.8706 17.5164C24.6673 18.7198 23.0352 19.3958 21.3334 19.3958C19.6316 19.3958 17.9995 18.7198 16.7961 17.5164C15.5927 16.3131 14.9167 14.681 14.9167 12.9792ZM14.9167 22.6042C12.7894 22.6042 10.7493 23.4492 9.24512 24.9534C7.74092 26.4576 6.89587 28.4977 6.89587 30.625C6.89587 31.9014 7.4029 33.1254 8.30542 34.028C9.20794 34.9305 10.432 35.4375 11.7084 35.4375H30.9584C32.2347 35.4375 33.4588 34.9305 34.3613 34.028C35.2638 33.1254 35.7709 31.9014 35.7709 30.625C35.7709 28.4977 34.9258 26.4576 33.4216 24.9534C31.9174 23.4492 29.8773 22.6042 27.75 22.6042H14.9167Z" fill="white"/>
</svg>
