<svg width="25" height="25" viewBox="0 0 25 25" fill="none" xmlns="http://www.w3.org/2000/svg">
<path d="M13.7657 4.16881C14.0658 3.86885 14.4727 3.70035 14.8969 3.70035C15.3212 3.70035 15.7281 3.86885 16.0281 4.16881L23.2281 11.3688C23.5281 11.6689 23.6966 12.0757 23.6966 12.5C23.6966 12.9243 23.5281 13.3312 23.2281 13.6312L16.0281 20.8312C15.7264 21.1227 15.3222 21.2839 14.9027 21.2803C14.4832 21.2766 14.0819 21.1084 13.7852 20.8117C13.4886 20.5151 13.3203 20.1138 13.3167 19.6942C13.313 19.2747 13.4743 18.8706 13.7657 18.5688L18.0969 14.1H2.89694C2.47259 14.1 2.06562 13.9314 1.76557 13.6314C1.46551 13.3313 1.29694 12.9244 1.29694 12.5C1.29694 12.0757 1.46551 11.6687 1.76557 11.3686C2.06562 11.0686 2.47259 10.9 2.89694 10.9H18.0969L13.7657 6.43121C13.4658 6.13116 13.2973 5.72427 13.2973 5.30001C13.2973 4.87574 13.4658 4.46885 13.7657 4.16881Z" fill="white"/>
</svg>
